<svg width="20" height="38" viewBox="0 0 20 38" fill="none" xmlns="http://www.w3.org/2000/svg">
<path d="M12.5 27.8918C12.4989 28.6224 11.972 29.2462 11.252 29.3696C8.0096 30.0006 5.02453 31.571 2.668 33.8856C1.88053 34.76 1.19173 35.7184 0.614027 36.7438C0.480187 36.9854 0.567467 37.2896 0.809067 37.4235C0.951467 37.5024 1.12347 37.507 1.27013 37.4358C6.87307 35.0515 12.9277 33.9144 19.0141 34.1038C19.5608 34.096 20 33.6504 20 33.1038V1.57369V1.57361C20 1.02132 19.5523 0.573608 19 0.573608C18.9952 0.573608 18.9907 0.573635 18.9859 0.573715C16.7579 0.601715 14.7579 0.731688 12.9459 0.925688C12.6917 0.953315 12.4995 1.16811 12.5 1.42371V27.8918Z" fill="#3D55F9"/>
</svg>
