<svg width="48" height="30" viewBox="0 0 48 30" fill="none" xmlns="http://www.w3.org/2000/svg">
<path d="M48 2.5C48 1.39544 47.1045 0.5 46 0.5H2C0.895429 0.5 0 1.39544 0 2.5C4.82821e-08 3.60456 0.895429 4.5 2 4.5H3.84C4.11117 4.49995 4.33256 4.71688 4.338 4.988V4.98797C4.49544 12.4968 8.94024 19.252 15.774 22.368C16.0254 22.4821 16.1368 22.7784 16.0227 23.0299C15.9761 23.1325 15.8962 23.2165 15.796 23.268C13.6137 24.3987 11.6861 25.964 10.132 27.868C9.78293 28.296 9.84693 28.9259 10.275 29.2749C10.4531 29.4203 10.676 29.4997 10.906 29.5H37.0939C37.6461 29.4995 38.0936 29.0512 38.0931 28.4989C38.0928 28.2691 38.0133 28.0461 37.868 27.868C36.3136 25.9635 34.3853 24.3979 32.2019 23.268C31.9563 23.1419 31.8597 22.8403 31.9859 22.5947C32.0373 22.4944 32.1213 22.4147 32.224 22.368C39.0584 19.2525 43.5043 12.4973 43.6619 4.988C43.6675 4.71685 43.8888 4.49995 44.16 4.5H46C47.1045 4.5 48 3.60456 48 2.5Z" fill="#3D55F9"/>
</svg>
