<svg width="21" height="39" viewBox="0 0 21 39" fill="none" xmlns="http://www.w3.org/2000/svg">
<path d="M20.556 5.26771C20.5833 5.07163 20.4923 4.87792 20.324 4.77371C17.8 3.19971 12.066 0.717708 1.014 0.573708C0.461771 0.565975 0.00782937 1.00736 9.87053e-05 1.5596C3.20386e-05 1.56429 0 1.56899 0 1.57371V33.1038C0 33.6507 0.439288 34.096 0.986107 34.1038C11.2881 34.2358 16.9741 36.4038 19.7561 37.9678C19.9094 38.0568 20.0987 38.0568 20.2521 37.9678C20.4057 37.8782 20.5002 37.7136 20.5001 37.5358V5.89171C20.5058 5.68275 20.5245 5.47435 20.556 5.26771Z" fill="#3D55F9"/>
</svg>
